{"title":"Philadelphia (1993)Tom Hanks + Denzel Washington(Opt.MULTISUBS)","uid":4804881,"size":754710111,"categoryP":"video","categoryS":"movies","magnet":"?xt=urn:btih:d69c9e28aef44e267ab31d1b0aad8bea347a7238&amp;dn=Philadelphia+%281993%29Tom+Hanks+%2B+Denzel+Washington%28Opt.MULTISUBS%29&amp;tr=udp%3A%2F%2Ftracker.openbittorrent.com%3A80&amp;tr=udp%3A%2F%2Fopen.demonii.com%3A1337&amp;tr=udp%3A%2F%2Ftracker.coppersurfer.tk%3A6969&amp;tr=udp%3A%2F%2Fexodus.desync.com%3A6969","seeders":7,"leechers":1,"uploader":"Kuthumi","files":-1,"time":1238168714,"description":" &lt;a href=&quot;http://www.imdb.com/title/tt0107818/&quot; rel=&quot;nofollow&quot; target=&quot;_NEW&quot;&gt;http://www.imdb.com/title/tt0107818/&lt;/a&gt;\n\nWith Antonio Banderas\n\nOptional subtitles in separate idx/sub files: (Work in Windows Media Player etc.): Danish, Dutch (srt format), English, Finnish, German, Icelandic, Norwegian, Swedish.\n\nTom Hanks got his well-earned first Oscar for this great classic, and Bruce Springsteen for best music (Original song: Streets of Philadelphia). I could find no smaller rip with multisubs here, so I made one for you.\n\nMy new ripping procedure now produces decent quality for such a long film compressed into just 700 MiB. I enclose a sample for ye weak in faith. \n\nWidescreen DVDrip XviD 2-pass 704x384, great stereo sound AC3.\nBurn tested, runs well in both my standalone DivX players.\n\nFormat/Info                      : Audio Video Interleave\nFile size                        : 695 MiB\nDuration                         : 2h 0mn\nOveral bit rate                  : 807 Kbps\n\nVideo\nFormat                           : MPEG-4 Visual\nFormat profile                   : Streaming Video@L1\nFormat settings, BVOP            : Yes\nFormat settings, QPel            : No\nFormat settings, GMC             : No warppoints\nFormat settings, Matrix          : Default\nMuxing mode                      : Packet Bitstream\nCodec ID                         : XVID\nCodec ID/Hint                    : XviD\nDuration                         : 2h 0mn\nBit rate                         : 669 Kbps\nWidth                            : 704 pixels\nHeight                           : 384 pixels\nDisplay aspect ratio             : 16/9\nFrame rate                       : 25.000 fps\nResolution                       : 8 bits\nColorimetry                      : 4:2:0\nScan type                        : Progressive\nBits/(Pixel*Frame)               : 0.099\nStream size                      : 576 MiB\nWriting library                  : XviD 1.2.0.dev47 (UTC 2006-11-01)\n\nAudio\nFormat                           : MPEG Audio\nFormat version                   : Version 1\nFormat profile                   : Layer 3\nCodec ID                         : 55\nCodec ID/Hint                    : MP3\nDuration                         : 2h 0mn\nBit rate mode                    : Constant\nBit rate                         : 128 Kbps\nMinimum bit rate                 : 128 Kbps\nChannel(s)                       : 2 channels\nSampling rate                    : 48.0 KHz\nResolution                       : 16 bits\nStream size                      : 110 MiB\nWriting library                  : LAME3.97 \nEncoding settings                : CBR\n\nSource: PAL retail","torrent":{"xt":"urn:btih:d69c9e28aef44e267ab31d1b0aad8bea347a7238","amp;dn":"Philadelphia+%281993%29Tom+Hanks+%2B+Denzel+Washington%28Opt.MULTISUBS%29","amp;tr":["udp%3A%2F%2Ftracker.openbittorrent.com%3A80","udp%3A%2F%2Fopen.demonii.com%3A1337","udp%3A%2F%2Ftracker.coppersurfer.tk%3A6969","udp%3A%2F%2Fexodus.desync.com%3A6969"],"infoHash":"d69c9e28aef44e267ab31d1b0aad8bea347a7238","infoHashBuffer":{"type":"Buffer","data":[214,156,158,40,174,244,78,38,122,179,29,27,10,173,139,234,52,122,114,56]},"announce":[],"urlList":[]}}